HIERARCHY
ROOT Hips
{
	OFFSET -0.179506 -22.333345 2.821913
	CHANNELS 6 Xposition Yposition Zposition Zrotation Yrotation Xrotation 
	JOINT LeftUpLeg
	{
		OFFSET 6.951974 -9.140623 -0.681533
		CHANNELS 3 Zrotation Yrotation Xrotation
		JOINT LeftLeg
		{
			OFFSET 3.427654 -37.519855 -0.449580
			CHANNELS 3 Zrotation Yrotation Xrotation
			JOINT LeftFoot
			{
				OFFSET -1.359570 -39.796059 -4.369333
				CHANNELS 3 Zrotation Yrotation Xrotation
				JOINT LeftToe
				{
					OFFSET 2.635814 -5.579078 11.928840
					CHANNELS 3 Zrotation Yrotation Xrotation
					End Site
					{
						OFFSET 0.000000 0.000000 0.000000
					}
				}
			}
		}
	}
	JOINT RightUpLeg
	{
		OFFSET -6.767048 -9.052170 -0.431982
		CHANNELS 3 Zrotation Yrotation Xrotation
		JOINT RightLeg
		{
			OFFSET -3.829005 -38.256897 -0.885003
			CHANNELS 3 Zrotation Yrotation Xrotation
			JOINT RightFoot
			{
				OFFSET 1.577377 -39.841461 -4.231180
				CHANNELS 3 Zrotation Yrotation Xrotation
				JOINT RightToe
				{
					OFFSET -2.537174 -4.814398 12.334795
					CHANNELS 3 Zrotation Yrotation Xrotation
					End Site
					{
						OFFSET 0.000000 0.000000 0.000000
					}
				}
			}
		}
	}
	JOINT Spine
	{
		OFFSET -0.253288 10.896323 -2.669631
		CHANNELS 3 Zrotation Yrotation Xrotation
		JOINT Spine1
		{
			OFFSET 0.548704 13.518043 0.109247
			CHANNELS 3 Zrotation Yrotation Xrotation
			JOINT Spine2
			{
				OFFSET 0.145701 5.292222 2.542457
				CHANNELS 3 Zrotation Yrotation Xrotation
				JOINT Neck
				{
					OFFSET -0.277840 21.387037 -4.285703
					CHANNELS 3 Zrotation Yrotation Xrotation
					JOINT Head
					{
						OFFSET 0.515184 6.496960 5.134897
						CHANNELS 3 Zrotation Yrotation Xrotation
						End Site
						{
							OFFSET 0.000000 0.000000 0.000000
						}
					}
				}
				JOINT LeftShoulder
				{
					OFFSET 7.884473 12.174932 -3.408961
					CHANNELS 3 Zrotation Yrotation Xrotation
					JOINT LeftArm
					{
						OFFSET 9.097692 3.046888 -0.886815
						CHANNELS 3 Zrotation Yrotation Xrotation
						JOINT LeftForeArm
						{
							OFFSET 25.961220 -1.277207 -2.745643
							CHANNELS 3 Zrotation Yrotation Xrotation
							JOINT LeftHand
							{
								OFFSET 24.923361 0.898606 -0.117091
								CHANNELS 3 Zrotation Yrotation Xrotation
								End Site
								{
									OFFSET 0.000000 0.000000 0.000000
								}
							}
						}
					}
				}
				JOINT RightShoulder
				{
					OFFSET -8.175920 11.883285 -3.861528
					CHANNELS 3 Zrotation Yrotation Xrotation
					JOINT RightArm
					{
						OFFSET -9.601238 3.255117 -0.914307
						CHANNELS 3 Zrotation Yrotation Xrotation
						JOINT RightForeArm
						{
							OFFSET -25.374195 -1.332924 -2.140099
							CHANNELS 3 Zrotation Yrotation Xrotation
							JOINT RightHand
							{
								OFFSET -25.529810 0.777228 -0.555919
								CHANNELS 3 Zrotation Yrotation Xrotation
								End Site
								{
									OFFSET 0.000000 0.000000 0.000000
								}
							}
						}
					}
				}
			}
		}
	}
}
MOTION
Frames: 18
Frame Time: 0.033333
-35.077793 -1.558470 91.430252 161.115537 -2.206427 86.441045 -1.255344 -4.335064 -24.554596 0.833618 0.089894 8.278692 -9.481282 2.748013 6.092833 nan nan nan -0.387188 -5.489068 25.194230 -0.386338 11.009493 -1.573239 6.647819 6.629270 -7.905321 nan nan nan 2.952746 11.136492 11.318986 -0.706945 0.626379 1.646958 -0.638342 5.307043 0.824949 3.212846 -10.663736 -8.167037 6.962927 -15.898317 -5.477180 -22.166094 12.421925 -3.139922 -61.889709 6.801024 7.871058 8.511896 -19.633724 -9.623378 0.112939 -10.828309 -30.754613 17.692353 2.354051 -4.030535 52.144068 19.544657 13.230660 -9.621828 47.892690 -8.019135 3.076201 13.992908 -18.885325 
-34.823132 -0.497633 91.348549 160.589912 -2.310554 86.436116 -1.305924 -4.530696 -24.474305 0.698702 -0.099865 8.916419 -9.451436 2.907859 6.704584 nan nan nan -0.517252 -5.359690 25.410094 -0.651285 11.135328 -0.924277 7.167048 6.697489 -7.465280 nan nan nan 2.838342 11.133371 11.157397 -0.795344 0.538326 1.597517 -0.724209 5.464320 0.843276 3.147402 -10.696311 -7.845681 7.420088 -15.742524 -5.832361 -22.086641 12.462472 -2.988418 -62.275483 6.863239 8.096862 8.827165 -19.590281 -10.218207 1.231910 -10.733958 -31.437917 17.752983 2.261625 -3.730797 52.358321 19.245238 13.347253 -8.752659 48.139758 -7.047336 2.302905 13.568907 -19.645404 
-34.549335 0.559182 91.325233 160.060761 -2.382597 86.466185 -1.299055 -4.747335 -24.414838 0.583448 -0.271899 9.610338 -9.603011 3.256406 7.712698 nan nan nan -0.564561 -5.164746 25.503509 -0.919235 11.264986 -0.086502 7.594959 6.579752 -7.146996 nan nan nan 2.767444 11.133394 11.054394 -0.938424 0.430310 1.234437 -0.814169 5.626631 1.018409 3.326168 -10.650121 -7.618503 7.787258 -15.555657 -6.081209 -21.866545 12.864526 -3.001788 -62.400129 6.804422 8.201416 8.555692 -19.672472 -10.087214 2.438948 -10.526466 -32.286821 17.815920 2.024818 -3.604637 52.740624 18.849871 13.708210 -7.684388 48.099298 -5.824534 0.827255 13.291961 -20.784950 
-34.298656 1.584940 91.312469 159.670713 -2.623280 86.789489 -1.236505 -5.317308 -24.852372 0.357517 0.187662 10.830953 -9.326519 3.023956 8.298789 nan nan nan -0.731872 -4.776321 25.249660 -1.059447 11.131519 0.828884 7.734437 6.415345 -6.784099 nan nan nan 2.364798 11.402341 10.484838 -0.874886 0.289905 1.124040 -1.025933 5.735990 1.081134 3.564737 -10.848963 -7.757728 8.173696 -15.435564 -5.800708 -20.870025 13.598596 -2.522192 -63.423609 5.552038 8.442975 8.425942 -18.565903 -9.950121 2.514516 -10.973434 -33.162815 17.123582 1.004307 -3.602322 56.553041 19.207726 15.057501 -11.344909 45.587627 -7.393446 2.741635 13.753668 -18.347799 
-34.056030 2.628035 91.405945 159.228060 -2.812476 86.882997 -1.261599 -5.771104 -24.656148 0.087798 -0.071244 11.573844 -9.513970 3.858476 8.811336 nan nan nan -0.868603 -4.520002 25.075304 -1.145875 11.460945 1.958617 8.012127 6.008602 -6.356866 nan nan nan 2.051317 11.455093 9.971422 -0.910905 0.571444 1.307102 -0.818419 5.425477 1.146539 3.587028 -10.897398 -7.669424 8.150408 -15.216664 -6.264418 -21.674743 13.111008 -2.572848 -62.745518 6.182592 8.761675 8.145368 -19.639369 -10.678718 4.472856 -10.312346 -33.829515 17.824236 1.234564 -3.461010 53.557301 18.019624 14.826335 -6.171385 47.447856 -4.046605 -0.179380 13.311124 -21.564545 
-33.765747 3.666264 91.482918 158.938063 -2.998685 86.970917 -1.205840 -6.104524 -24.598638 -0.242581 0.210533 12.629715 -9.420019 4.095073 9.098158 nan nan nan -0.971130 -4.224797 24.789411 -1.121276 11.341548 3.346179 8.280755 5.901304 -5.652961 nan nan nan 1.624112 11.543346 9.539908 -0.840515 0.561992 1.388355 -0.824402 5.310496 1.108415 3.790524 -10.847099 -7.688560 8.312924 -15.138001 -6.105479 -21.375517 13.022348 -2.366767 -63.208206 6.083550 8.617036 8.760769 -19.727181 -10.829040 2.886251 -10.278588 -34.216099 17.890448 0.966272 -3.356394 55.208250 17.427388 14.991435 -7.833838 46.538219 -5.043076 1.977319 13.048156 -20.867749 
-33.463276 4.677662 91.593872 158.654981 -3.186595 86.903605 -1.139726 -6.440504 -24.268145 -0.546591 0.655591 13.576391 -9.287564 3.931908 9.012016 nan nan nan -0.990121 -3.856599 24.563535 -1.155996 11.002797 4.865188 8.719815 5.889308 -5.080379 nan nan nan 1.317136 11.674262 9.360569 -0.792447 0.461304 1.287555 -1.014292 5.338941 1.021262 4.107563 -10.900338 -7.671984 8.517478 -15.187777 -5.828555 -20.338887 13.145054 -1.844597 -64.078517 5.124580 8.592122 9.069955 -18.738229 -10.419082 1.140342 -10.784694 -34.317310 17.091285 0.256239 -3.517247 58.831481 17.281075 15.735533 -10.832461 43.511898 -5.973545 4.251175 13.622331 -19.193165 
-33.206043 5.722016 91.718086 158.240635 -3.459282 86.915433 -1.264188 -6.651389 -23.880570 -0.967038 0.459919 14.293924 -9.162854 4.221498 8.519373 nan nan nan -1.254422 -3.646343 23.981097 -1.094696 11.341556 6.868812 9.251552 5.558822 -4.510483 nan nan nan 0.946445 11.688338 9.022025 -0.748720 0.701488 1.380570 -0.954222 5.066051 1.038915 4.186971 -10.791232 -7.520739 8.445862 -15.174466 -6.118718 -20.864647 12.512241 -1.748992 -63.541821 5.594289 8.711786 8.808427 -19.678174 -10.327498 1.788838 -10.134076 -34.597208 17.828979 0.309589 -3.433878 57.203007 16.081517 15.311625 -7.945635 44.679738 -3.964785 2.454914 12.700200 -20.971516 
-32.935833 6.750070 91.816856 157.829026 -3.721247 86.947753 -1.270996 -6.885390 -23.495411 -1.677240 0.652002 14.915350 -8.796180 4.297296 7.828595 nan nan nan -1.525912 -3.314424 23.283829 -0.922463 11.363805 8.989991 9.644438 5.449600 -3.735478 nan nan nan 0.673372 11.621248 8.737286 -0.864521 0.900289 1.315157 -1.027425 4.778320 1.106965 4.534397 -10.872146 -7.383812 8.485417 -14.809712 -6.098771 -20.607411 12.445240 -1.604940 -63.695133 5.456186 8.909984 8.704259 -19.868881 -10.031934 1.591310 -10.322597 -35.283438 17.090680 0.050018 -3.615603 58.590255 15.667068 15.946311 -6.979417 43.158260 -3.225143 3.181347 12.527572 -21.252137 
-32.661137 7.760231 91.920593 157.489447 -3.930774 86.989825 -1.292327 -7.082571 -23.142673 -2.306469 0.913618 15.485673 -8.221013 4.405985 7.227125 nan nan nan -1.794174 -2.978896 22.366070 -0.548797 11.234008 11.440858 9.966372 5.300267 -2.783595 nan nan nan 0.323322 11.516416 8.485656 -0.811529 0.949457 1.186822 -1.012376 4.488556 1.178149 4.654923 -10.837977 -7.373158 8.411202 -14.497381 -5.871712 -20.365978 12.607126 -1.492363 -63.965417 5.066238 8.988234 8.541449 -19.760554 -9.598900 1.386186 -10.506339 -35.486070 16.727228 -0.319232 -3.562908 59.854034 15.364903 16.468098 -6.963985 42.042935 -2.815477 3.944869 12.171970 -20.562131 
-32.385864 8.771919 92.032288 157.270585 -4.087669 87.008997 -1.464132 -7.149037 -22.785253 -2.684381 0.986369 16.129012 -7.598667 4.483126 6.529162 nan nan nan -2.073285 -2.794675 21.388771 -0.003234 11.274240 14.018365 10.314841 4.928697 -1.789402 nan nan nan -0.079301 11.351876 8.191395 -0.633190 0.962017 1.145740 -0.851742 4.235919 1.301379 4.580584 -10.986245 -7.583393 8.236419 -14.162761 -5.690923 -20.556383 12.613163 -1.354137 -63.981256 4.650361 9.118534 8.320336 -19.853501 -9.605480 1.943666 -10.446010 -35.321204 16.973776 -0.547016 -3.328707 59.575650 14.680892 16.746659 -6.256118 42.399139 -2.414262 3.701345 11.783949 -19.875591 
-32.110439 9.762083 92.159142 156.938316 -4.286471 86.955207 -1.633753 -7.013581 -22.236607 -3.209163 0.880337 16.676934 -6.894294 4.729831 5.691262 nan nan nan -2.309227 -2.625829 20.415619 0.420926 11.412519 16.627429 10.844785 4.590495 -0.640150 nan nan nan -0.441020 11.078392 8.131055 -0.619042 0.980678 0.838732 -0.845821 4.183267 1.507081 4.633066 -11.099076 -7.733465 8.387819 -13.856330 -5.399081 -20.434852 12.477952 -1.147377 -64.069980 4.329381 9.372515 7.972259 -20.154685 -9.718661 2.755520 -10.357207 -35.943529 16.926272 -0.641007 -3.224962 59.784670 14.074554 17.057493 -5.044763 41.748511 -1.639725 3.635639 11.250408 -19.743374 
-31.785372 10.713847 92.341354 156.502229 -4.417632 86.712251 -1.795008 -6.721898 -21.296005 -3.574567 1.070896 17.019818 -6.307224 4.562045 4.804784 nan nan nan -2.487025 -2.582932 19.451959 0.648277 11.169130 19.552478 11.077696 4.678145 0.224326 nan nan nan -0.631351 10.899341 8.415179 -0.525747 0.788000 0.571160 -1.108982 4.361340 1.364304 4.582807 -11.091488 -7.953694 8.814214 -14.048750 -4.838589 -19.785441 12.616017 -0.707370 -64.418585 3.176742 9.437892 7.522569 -19.229284 -9.879620 2.752355 -11.201028 -36.089088 16.613909 -1.268492 -3.138747 62.693392 13.910695 17.699016 -8.058182 38.952860 -2.831475 5.638527 11.569838 -17.700013 
-31.558825 11.690442 92.497879 156.202009 -4.648090 86.672869 -2.247642 -6.633749 -20.486487 -3.722517 0.705774 17.051183 -6.032262 5.058294 4.162656 nan nan nan -2.897825 -2.562803 18.208443 1.076217 10.954639 22.421356 11.268350 4.363118 1.435092 nan nan nan -0.819115 10.388225 8.241533 -0.624236 0.863600 0.693116 -1.109105 4.188613 1.385848 4.652220 -10.978989 -7.802608 8.769432 -13.809192 -5.197868 -20.573707 11.812473 -1.012718 -63.585015 3.788847 9.396867 7.193567 -20.301583 -10.144500 4.207545 -10.522460 -36.128907 17.227870 -0.822573 -3.262883 60.782883 12.603805 17.308811 -4.301612 39.845144 -0.495050 3.890915 10.980722 -20.641603 
-31.275377 12.631468 92.604675 156.401254 -4.768558 86.608285 -2.587892 -6.859642 -19.891045 -3.715141 0.768848 17.340385 -5.646722 4.691243 3.805657 nan nan nan -3.005747 -2.526723 17.102290 1.362232 10.041350 25.003768 11.138304 4.261651 2.758487 nan nan nan -0.963151 10.000514 8.082443 -0.566886 0.480240 0.684004 -1.336411 4.083537 1.472230 4.805104 -11.089655 -7.760051 9.001061 -13.356152 -5.152592 -19.842133 12.089669 -0.738498 -64.326713 2.413060 9.639787 7.137775 -19.297749 -9.802613 4.572591 -11.027031 -36.427768 16.447287 -1.514796 -3.250422 63.835754 12.658314 18.294016 -6.578481 37.081909 -1.596577 4.362485 11.410694 -19.410229 
-31.045267 13.516323 92.746498 156.336431 -4.871202 86.531234 -2.905884 -6.965266 -19.092767 -3.894477 0.338987 17.294101 -5.376022 5.123202 3.284835 nan nan nan -3.226495 -2.408894 15.771006 1.818806 9.392471 27.750415 10.992424 4.009003 4.389539 nan nan nan -0.932185 9.342672 8.047423 -0.776847 0.590636 0.754037 -1.303757 3.672385 1.543634 4.878443 -11.227434 -7.764185 8.937873 -12.693552 -5.427938 -20.520080 11.296460 -0.982702 -64.057842 2.592955 9.485081 7.856178 -19.748130 -10.683634 4.782766 -10.884485 -36.168639 16.562931 -1.055664 -3.345656 62.460870 11.923496 17.992564 -3.245438 37.046404 0.398004 4.993118 11.087792 -20.329486 
-30.718439 14.309052 92.880081 155.976377 -5.017429 86.348424 -3.119050 -6.810129 -18.163225 -4.056746 0.412282 17.217435 -4.955328 5.070442 2.642513 nan nan nan -3.534422 -2.334313 14.244801 1.917551 8.558834 30.796760 10.713526 4.054581 6.200902 nan nan nan -1.115873 9.100166 8.505416 -0.766680 0.520374 0.439577 -1.462535 3.589849 1.484477 4.780589 -11.258797 -8.027630 9.269644 -12.586936 -5.254401 -19.804789 11.333410 -0.687777 -64.798474 1.254022 9.408118 8.069596 -18.744686 -10.674860 4.084674 -11.572968 -36.281803 16.370459 -1.533338 -3.170811 64.990225 12.081865 18.218478 -6.097539 34.129775 -0.824154 6.822067 11.454239 -18.169143 
-30.448009 15.119816 92.996391 155.547452 -5.255055 86.234294 -3.491998 -6.464517 -17.212873 -4.174718 0.339439 17.040070 -4.611212 5.115681 2.006029 nan nan nan -3.888626 -2.285181 12.599307 1.874436 7.909457 33.724242 10.697547 3.760516 8.203038 nan nan nan -1.432040 8.732271 8.890700 -0.684854 0.531105 0.300736 -1.507015 3.454152 1.344128 4.680515 -11.133406 -8.114455 9.432995 -12.454202 -5.466142 -19.963401 11.268583 -0.496970 -64.507689 0.515602 9.765829 7.747274 -19.018057 -10.702940 5.020879 -11.365875 -36.728350 16.921077 -1.867100 -2.883098 64.108253 11.511489 18.809810 -4.661075 34.477567 1.123687 5.422580 11.308704 -20.446298 
